<?xml version="1.0" standalone="no"?>
<!DOCTYPE svg PUBLIC "-//W3C//DTD SVG 20010904//EN"
 "http://www.w3.org/TR/2001/REC-SVG-20010904/DTD/svg10.dtd">
<svg version="1.0" xmlns="http://www.w3.org/2000/svg"
 width="2250.000000pt" height="2250.000000pt" viewBox="0 0 2250.000000 2250.000000"
 preserveAspectRatio="xMidYMid meet">
<metadata>
Created by potrace 1.14, written by Peter Selinger 2001-2017
</metadata>
<g transform="translate(0.000000,2250.000000) scale(0.100000,-0.100000)"
fill="#000000" stroke="none">
<path d="M11025 21454 c-33 -13 -148 -56 -255 -95 -107 -39 -204 -74 -215 -79
-56 -24 -206 -80 -214 -80 -5 0 -22 -6 -38 -14 -15 -8 -59 -27 -98 -41 -38
-15 -83 -33 -100 -40 -16 -7 -48 -20 -70 -29 -270 -111 -618 -299 -815 -441
-47 -33 -91 -65 -99 -69 -14 -9 -15 -18 7 184 4 36 7 97 7 137 0 61 -4 75 -23
96 -52 56 -144 12 -303 -143 -203 -199 -285 -273 -374 -341 -126 -98 -209
-131 -284 -117 -25 5 -59 11 -76 14 -16 3 -66 7 -110 9 -320 12 -672 -175
-899 -480 -82 -110 -124 -186 -173 -315 -13 -36 -28 -68 -32 -72 -24 -26 -311
-27 -490 -2 -267 37 -424 19 -542 -63 -96 -65 -493 -411 -699 -608 -396 -379
-1144 -1130 -1183 -1187 -16 -24 -38 -63 -49 -88 -11 -25 -24 -54 -29 -65 -5
-11 -32 -87 -60 -170 -77 -226 -118 -315 -187 -400 -174 -216 -360 -402 -787
-790 -165 -150 -451 -438 -536 -540 -132 -159 -236 -305 -301 -425 -14 -25
-41 -75 -61 -112 -112 -206 -266 -639 -332 -932 -28 -123 -58 -265 -61 -281
-5 -31 -14 -78 -20 -105 -3 -14 -7 -36 -9 -50 -2 -14 -10 -63 -19 -110 -9 -47
-18 -98 -20 -115 -7 -49 -18 -119 -21 -135 -5 -25 -25 -163 -30 -200 -2 -19
-7 -51 -10 -70 -3 -19 -8 -51 -11 -70 -20 -145 -32 -220 -53 -355 -11 -71 -23
-150 -26 -175 -4 -24 -8 -47 -10 -50 -1 -3 -6 -25 -9 -50 -3 -25 -8 -54 -10
-65 -50 -262 -48 -244 -28 -278 58 -97 256 -488 342 -677 156 -341 311 -761
374 -1017 49 -196 75 -303 81 -338 5 -22 9 -44 10 -50 9 -39 25 -125 29 -150
3 -16 9 -57 15 -90 15 -98 4 -162 -35 -197 -38 -33 -118 -41 -188 -18 -16 6
-31 9 -33 7 -5 -5 -4 -441 2 -507 17 -215 57 -349 201 -668 13 -29 24 -54 24
-56 0 -3 10 -26 22 -53 12 -26 22 -50 22 -53 1 -3 14 -31 29 -64 15 -32 27
-61 27 -65 0 -3 7 -19 16 -36 9 -16 27 -56 40 -87 13 -32 35 -81 48 -110 13
-29 34 -75 46 -103 12 -27 39 -88 60 -135 45 -101 48 -107 208 -465 350 -787
537 -1259 733 -1851 l33 -102 41 -5 c70 -10 130 -43 192 -104 86 -86 139 -201
158 -343 3 -25 8 -52 10 -60 2 -8 7 -30 10 -49 3 -19 7 -37 9 -40 2 -3 7 -22
10 -41 10 -64 93 -324 136 -425 106 -253 248 -466 412 -620 91 -85 95 -89 183
-147 125 -82 254 -140 405 -180 66 -18 112 -20 380 -23 168 -2 330 -6 360 -9
199 -24 373 -100 510 -225 142 -130 391 -253 639 -316 63 -16 77 -19 156 -30
22 -3 52 -8 67 -11 37 -8 287 -8 295 -1 3 4 58 -21 122 -55 249 -131 304 -160
526 -273 519 -265 736 -388 1003 -567 64 -43 77 -48 116 -45 58 6 96 26 123
65 l22 33 16 -25 c13 -20 16 -49 15 -148 -1 -68 -2 -129 -1 -136 1 -9 12 -11
41 -7 21 3 54 8 72 10 18 2 53 7 78 10 25 3 63 7 85 10 22 3 58 7 80 10 46 5
109 13 175 20 25 3 68 7 95 10 28 4 73 8 100 10 28 2 73 6 100 9 28 3 88 8
135 11 47 4 103 8 125 10 237 24 878 24 1115 0 19 -2 67 -6 106 -10 39 -3 80
-7 90 -9 11 -2 42 -7 69 -10 157 -20 526 -101 615 -134 17 -7 39 -5 70 5 25 7
53 16 63 18 10 2 26 7 35 9 69 22 263 27 367 9 159 -26 371 -109 573 -225 46
-27 86 -48 88 -48 2 0 23 -12 45 -27 62 -41 254 -62 307 -34 37 20 40 76 7
177 -5 18 1 26 37 46 115 64 355 135 588 174 14 3 69 14 122 26 150 33 188 15
316 -151 111 -144 180 -200 266 -217 28 -5 37 -4 32 4 -11 19 -9 277 3 334 38
179 129 211 533 184 l67 -4 -2 176 c-2 171 -1 179 23 225 15 28 83 107 165
190 77 78 178 185 225 237 121 137 345 358 415 411 33 25 91 65 128 89 l68 43
36 -39 c20 -22 64 -70 99 -109 35 -38 90 -99 123 -134 60 -64 60 -64 67 -37
16 67 -15 197 -79 323 -15 28 -71 99 -126 158 -55 59 -104 120 -109 135 -18
50 2 62 205 131 178 60 193 63 283 63 84 1 101 -2 148 -27 30 -15 70 -41 90
-57 20 -17 40 -30 44 -30 4 0 -9 30 -29 66 -59 108 -51 154 35 213 72 50 135
63 317 65 152 3 176 5 223 26 58 25 134 101 158 159 27 63 53 177 56 248 2 37
5 70 8 73 9 8 391 469 456 550 262 326 571 787 769 1145 151 273 315 598 414
820 30 66 64 143 76 170 54 121 191 455 230 562 19 51 39 102 45 113 21 40 1
33 -76 -25 -249 -187 -440 -393 -634 -683 -83 -123 -116 -164 -154 -189 -64
-44 -114 -44 -180 -2 -27 16 -49 29 -50 27 -3 -5 -22 -67 -66 -208 -62 -199
-72 -230 -76 -230 -2 0 -1 15 1 33 3 30 6 61 20 245 4 39 3 72 0 72 -6 0 -88
-62 -180 -135 -66 -53 -446 -347 -686 -530 -14 -11 -208 -157 -430 -323 -222
-167 -411 -309 -419 -315 -63 -49 -729 -528 -874 -628 -43 -30 -122 -84 -175
-121 -117 -82 -675 -456 -786 -527 -44 -28 -87 -56 -95 -61 -231 -156 -351
-194 -457 -145 -54 25 -114 87 -146 153 -19 38 -40 54 -49 34 -1 -4 -57 -54
-122 -110 -157 -135 -220 -153 -267 -79 -17 27 -20 44 -16 102 3 39 8 78 12
88 6 15 4 16 -21 7 -35 -14 -94 -15 -164 -5 -150 21 -194 -4 -250 -147 -38
-99 -58 -99 -110 -2 -34 64 -61 91 -79 80 -5 -3 -12 -32 -17 -63 -4 -32 -8
-60 -9 -63 -1 -3 -5 -30 -9 -60 -9 -58 -9 -60 -22 -130 l-8 -45 -7 58 c-9 76
-37 110 -80 95 -38 -13 -93 -76 -126 -143 l-27 -54 -72 109 c-94 143 -163 227
-242 295 l-23 19 24 -49 c45 -90 72 -210 61 -268 -8 -40 -39 -35 -83 15 l-38
41 -8 -84 c-4 -46 -9 -93 -11 -104 -1 -11 -4 -37 -5 -58 -2 -35 -6 -40 -48
-60 -25 -12 -87 -62 -142 -116 -113 -112 -133 -129 -162 -140 -25 -9 -93 -18
-212 -26 -44 -3 -96 -8 -115 -10 -19 -3 -60 -7 -90 -10 -65 -7 -118 -14 -145
-19 -11 -2 -49 -7 -85 -11 -36 -4 -67 -8 -70 -10 -3 -2 -26 -6 -50 -10 -74
-10 -317 -62 -435 -93 l-110 -28 -135 33 c-136 34 -156 39 -375 88 -146 33
-152 34 -190 41 -16 3 -61 11 -100 19 -161 32 -366 69 -445 80 -67 9 -103 15
-120 20 -8 2 -40 7 -70 10 -30 3 -64 8 -75 10 -11 3 -42 7 -70 11 -27 3 -61 7
-75 9 -14 1 -50 6 -80 9 -30 4 -66 9 -80 11 -54 8 -171 20 -285 30 -38 3 -86
8 -105 10 -19 2 -69 7 -110 10 -233 17 -283 21 -395 36 -82 11 -288 51 -360
70 -22 6 -47 13 -56 14 -9 2 -39 11 -65 20 -27 9 -56 18 -64 20 -150 34 -620
252 -830 385 -8 5 -38 23 -67 39 -56 33 -73 51 -48 51 26 0 93 38 136 77 80
73 116 176 89 258 l-13 38 -13 -31 c-28 -67 -114 -122 -229 -147 -15 -4 -167
-35 -195 -40 -94 -18 -79 -25 -187 82 -190 186 -469 453 -673 643 -14 14 -84
79 -155 145 -70 66 -137 128 -148 137 -10 10 -74 68 -140 130 -166 155 -236
220 -277 258 -30 27 -165 153 -314 293 -378 353 -938 914 -1176 1177 -47 52
-106 117 -131 145 -50 54 -194 220 -219 251 -137 173 -283 463 -455 899 -26
66 -55 139 -66 162 -10 24 -19 47 -19 53 0 6 -4 18 -10 28 -5 9 -28 64 -51
122 -23 58 -56 137 -74 175 -58 125 -88 190 -91 194 -2 2 -23 -17 -48 -42 -79
-82 -134 -76 -208 23 -39 51 -81 166 -82 219 -1 103 78 189 159 171 32 -7 91
-42 108 -65 5 -5 6 4 3 20 -3 17 -8 57 -12 90 -3 33 -8 62 -9 65 -2 3 -6 33
-10 65 -4 33 -8 71 -11 85 -6 37 -24 159 -30 205 -2 22 -6 47 -9 55 -2 8 -7
40 -10 70 -4 30 -11 87 -17 125 -5 39 -11 84 -13 100 -3 17 -7 41 -9 54 -3 13
-8 49 -12 80 -3 31 -8 64 -10 74 -1 10 -10 70 -19 135 -9 64 -19 128 -21 142
-3 14 -7 68 -9 121 -6 129 15 201 115 404 79 160 118 247 126 275 18 73 24
105 29 163 4 38 8 76 10 87 2 10 6 51 10 92 3 40 8 84 10 98 2 14 7 48 9 75 3
28 8 75 11 105 3 30 8 69 10 85 2 17 7 57 10 90 3 33 7 71 10 85 2 14 7 55 10
92 3 37 7 75 9 85 2 10 7 56 11 103 4 47 8 87 10 90 2 3 6 41 9 85 4 44 9 87
11 95 2 8 6 47 10 85 3 39 8 86 10 105 2 19 7 60 10 90 3 30 8 69 9 85 8 61
19 161 21 185 4 39 25 231 30 275 2 22 7 60 10 85 2 25 7 65 9 90 3 25 8 62
11 84 4 21 8 48 9 60 16 120 110 532 153 671 53 171 132 396 150 430 6 11 12
25 13 30 20 92 242 536 383 765 38 62 203 314 220 335 4 6 31 42 59 80 102
138 257 331 375 465 12 14 31 36 43 50 155 180 565 591 901 902 20 18 85 78
145 134 108 100 191 177 243 223 43 39 243 224 271 251 53 51 137 119 215 172
79 55 381 238 392 238 5 0 120 68 698 413 207 123 475 280 580 337 33 19 92
51 130 72 83 46 461 235 525 262 25 11 86 37 135 58 50 21 98 43 107 48 10 6
23 10 29 10 6 0 25 6 42 14 18 7 46 19 62 26 135 57 667 211 805 234 19 3 60
10 90 16 30 6 64 13 75 15 38 7 230 34 285 40 30 3 71 8 89 11 19 2 76 7 125
10 50 3 116 7 146 9 68 5 391 5 645 1 205 -4 301 8 396 51 91 41 156 129 184
251 13 53 19 418 7 464 -3 15 -7 15 -39 2 -60 -26 -145 -20 -219 15 -53 25
-142 85 -164 112 -19 22 -177 142 -210 159 -57 29 -174 70 -196 69 -11 0 -46
-12 -79 -25z m-8095 -13021 c39 -45 106 -171 151 -285 11 -29 26 -66 34 -83 7
-16 20 -48 30 -70 36 -85 87 -183 119 -233 19 -28 37 -56 41 -62 13 -21 -138
56 -192 98 -42 34 -90 104 -102 151 -6 20 -13 68 -16 106 -10 107 -48 209
-131 346 -19 31 -34 62 -34 68 0 6 13 11 29 11 22 0 39 -11 71 -47z m-245 -76
c15 -45 28 -89 30 -97 2 -9 14 -49 28 -90 28 -85 47 -150 43 -150 -2 0 -45 53
-96 118 -51 64 -109 134 -128 154 -39 41 -44 74 -17 114 21 32 73 56 97 43 10
-5 29 -45 43 -92z"/>
<path d="M14288 20825 c-2 -2 -80 -5 -173 -7 -155 -4 -174 -6 -218 -28 -62
-31 -132 -106 -163 -175 -26 -56 -32 -62 -50 -47 -15 15 -94 43 -138 50 -99
16 -447 1 -539 -23 -104 -27 -218 -120 -262 -212 -64 -134 -52 -293 31 -425
15 -24 68 -83 118 -133 145 -143 311 -247 535 -337 150 -59 379 -116 536 -133
28 -3 72 -8 100 -11 27 -3 95 -7 151 -9 101 -3 114 -7 198 -55 17 -10 81 -46
141 -80 598 -341 1297 -804 2302 -1527 109 -79 317 -228 463 -333 564 -404
678 -481 729 -495 103 -27 220 3 430 111 80 41 152 74 161 74 14 0 16 -19 13
-167 -4 -296 34 -457 218 -924 129 -327 201 -423 436 -581 120 -80 263 -215
263 -247 0 -5 3 -11 8 -13 13 -6 69 -122 90 -188 12 -36 26 -94 32 -130 12
-68 15 -236 6 -304 -15 -105 -18 -125 -32 -181 -9 -33 -24 -86 -35 -118 l-19
-57 76 -152 c41 -84 100 -195 130 -248 71 -123 75 -129 101 -167 13 -17 23
-36 23 -40 0 -5 8 -18 18 -29 9 -10 35 -44 56 -74 120 -170 323 -383 427 -448
90 -57 101 -80 103 -211 2 -86 6 -115 24 -153 28 -60 74 -96 115 -92 46 6 87
37 141 108 l38 50 -7 -60 c-8 -82 -15 -143 -21 -184 -3 -19 -7 -57 -10 -85 -2
-27 -11 -102 -19 -166 -24 -194 -30 -305 -30 -529 0 -225 4 -277 31 -407 18
-88 32 -123 31 -77 0 32 11 195 18 262 10 91 14 129 20 192 5 54 21 187 41
345 6 46 16 112 29 190 3 17 10 59 15 95 28 174 119 563 170 725 30 96 90 266
102 288 18 35 -38 17 -97 -30 -16 -14 -64 -75 -105 -136 -77 -114 -123 -157
-170 -157 l-26 0 0 213 c-1 200 -10 526 -18 592 -2 17 -7 82 -11 145 -4 63 -9
124 -11 134 -2 11 -6 49 -9 85 -3 36 -7 80 -9 96 -2 17 -7 64 -11 105 -4 41
-9 82 -10 91 -2 9 -8 61 -15 115 -6 55 -13 115 -16 134 -3 19 -7 53 -9 75 -3
22 -7 56 -10 75 -3 19 -7 52 -10 74 -2 21 -7 55 -9 75 -3 20 -8 61 -12 91 -7
60 -9 73 -18 140 -10 68 -15 110 -22 169 -3 30 -7 62 -9 71 -2 9 -6 50 -10 91
-3 41 -10 90 -14 110 -5 19 -121 215 -258 435 -138 219 -385 614 -549 876
-164 263 -303 486 -309 496 -5 9 -95 153 -200 320 -104 166 -194 310 -200 320
-5 9 -28 47 -51 82 -84 135 -349 559 -403 645 -89 144 -183 256 -396 471 -303
305 -608 545 -995 781 -256 156 -607 330 -865 430 -49 19 -103 41 -120 48 -84
37 -422 147 -610 199 -187 51 -319 78 -445 92 -30 3 -71 8 -90 11 -36 6 -827
13 -832 8z"/>
<path d="M6417 12584 c-1 -1 -24 -4 -52 -8 -79 -10 -102 -15 -173 -41 -224
-83 -387 -246 -466 -465 -15 -40 -28 -85 -30 -99 -7 -48 -17 -116 -21 -136 -2
-11 -4 -25 -4 -31 -1 -7 -40 -34 -88 -60 -305 -170 -414 -502 -267 -814 73
-155 188 -261 346 -318 l73 -27 366 -2 365 -3 0 453 c-1 248 2 474 6 501 4 27
19 66 34 87 29 42 102 94 156 110 21 6 259 10 647 11 l614 0 -33 28 c-18 16
-51 36 -72 46 -35 16 -44 28 -52 75 -14 81 -80 186 -150 238 -126 93 -256 113
-401 62 -32 -12 -60 -21 -61 -21 -1 0 -20 25 -43 55 -178 235 -373 346 -634
358 -31 2 -58 2 -60 1z"/>
<path d="M8873 12206 c-48 -16 -75 -48 -76 -90 -1 -20 -5 -37 -9 -37 -4 -1
-16 -2 -25 -3 -58 -6 -82 -19 -97 -51 -29 -60 -16 -133 26 -156 12 -7 47 -15
77 -18 54 -6 55 -6 57 -41 24 -447 25 -510 5 -511 -132 -9 -181 -48 -173 -137
2 -21 14 -52 26 -67 21 -26 29 -28 78 -27 31 1 62 3 69 4 11 2 14 -17 13 -92
-1 -101 -10 -316 -20 -492 l-7 -107 28 -25 c53 -50 164 -43 204 12 27 39 37
148 45 531 3 106 7 195 9 197 7 8 267 7 439 0 92 -4 176 -5 187 -1 43 13 66
119 35 163 -38 54 -121 67 -452 67 -205 0 -212 1 -213 20 0 11 -2 75 -4 143
-2 94 -13 307 -17 351 -3 29 5 30 265 26 144 -2 278 -6 297 -8 127 -18 211
-19 235 -3 41 27 55 125 23 164 -46 55 -225 77 -620 75 -219 -1 -228 0 -228
19 0 73 -93 122 -177 94z"/>
<path d="M12581 11596 c-71 -23 -71 -25 -76 -381 -2 -176 -6 -331 -8 -345 -33
-237 -112 -345 -262 -357 -124 -10 -192 51 -232 208 -3 13 -7 195 -9 404 -2
209 -6 389 -9 400 -17 65 -155 87 -216 34 l-24 -21 0 -406 c0 -395 1 -409 23
-487 68 -233 205 -340 432 -334 153 4 273 63 340 167 l28 42 6 -35 c15 -78 91
-165 145 -165 48 0 111 53 111 94 0 8 -9 30 -19 48 -38 65 -41 108 -47 584 -3
334 -8 475 -17 493 -27 55 -99 80 -166 57z"/>
<path d="M16757 11604 c-1 -1 -20 -4 -42 -7 -119 -17 -206 -80 -279 -201 -34
-57 -36 -58 -36 -29 0 73 -85 219 -130 224 -51 5 -75 -3 -111 -40 -46 -45 -46
-69 -4 -142 14 -24 30 -60 35 -80 9 -34 18 -306 24 -740 2 -132 7 -213 15
-227 30 -56 151 -71 206 -27 l30 25 1 257 c1 284 6 359 35 472 34 133 90 228
161 275 35 23 63 29 136 28 52 0 69 -5 97 -27 20 -14 43 -43 54 -63 41 -84 45
-121 46 -534 2 -418 2 -415 47 -439 32 -17 105 -22 143 -9 67 22 67 24 62 459
-2 212 -7 397 -10 411 -4 14 -12 48 -18 75 -38 166 -145 287 -289 325 -38 10
-165 21 -173 14z"/>
<path d="M13218 11594 c-21 -6 -48 -63 -48 -101 0 -97 104 -126 445 -127 138
0 333 11 348 21 29 18 -29 -46 -210 -233 -110 -115 -229 -238 -263 -274 -225
-238 -310 -328 -344 -364 -46 -48 -66 -90 -59 -125 13 -72 70 -86 301 -76 311
14 613 9 736 -11 69 -11 120 43 111 117 -3 24 -11 49 -17 57 -32 38 -126 47
-485 46 l-303 0 79 80 c43 45 138 143 212 220 74 76 232 238 352 360 184 187
220 228 231 265 16 56 8 99 -25 123 -30 23 -108 26 -269 13 -124 -11 -499 -13
-585 -3 -111 12 -190 17 -207 12z"/>
<path d="M6765 11578 c-39 -11 -58 -26 -84 -68 -21 -35 -21 -39 -21 -736 0
-386 3 -716 6 -733 4 -18 26 -53 49 -78 l41 -46 743 -1 c582 -1 750 2 774 12
18 7 46 32 62 55 l30 42 3 715 c3 793 4 776 -61 822 l-32 23 -740 1 c-407 0
-753 -3 -770 -8z m610 -172 c42 -18 75 -69 75 -115 0 -73 -70 -135 -140 -124
-44 6 -89 38 -102 72 -25 65 -5 125 55 161 38 24 66 25 112 6z m381 -17 c53
-48 64 -117 26 -168 -86 -118 -265 -30 -223 109 24 82 136 116 197 59z m327
17 c45 -19 68 -48 74 -95 17 -124 -123 -194 -212 -106 -30 31 -35 42 -35 85 0
38 6 55 27 80 42 50 87 61 146 36z m132 -919 c0 -198 -3 -363 -6 -368 -3 -5
-289 -8 -700 -7 l-694 3 -1 360 c0 198 2 363 4 368 2 4 317 6 700 5 l696 -3 1
-358z"/>
<path d="M10665 11563 c-143 -15 -289 -94 -383 -209 -200 -244 -190 -697 20
-916 107 -111 220 -152 420 -150 162 2 266 39 347 124 l39 40 18 -28 c25 -40
63 -74 101 -90 41 -18 129 -25 159 -13 57 21 77 121 33 165 -13 13 -37 25 -52
26 -45 4 -75 37 -85 94 -10 59 -8 491 2 604 4 41 11 104 16 140 16 112 13 144
-16 171 -21 20 -36 24 -84 24 -76 0 -105 -24 -114 -96 l-7 -49 -30 34 c-41 48
-114 94 -174 112 -51 14 -153 23 -210 17z m146 -208 c50 -11 89 -33 132 -74
75 -71 86 -124 83 -387 -3 -198 -4 -204 -31 -259 -47 -97 -148 -148 -283 -144
-134 4 -209 53 -266 172 -96 199 -62 469 75 606 83 83 177 110 290 86z"/>
<path d="M15098 11565 c-2 -2 -26 -5 -53 -9 -185 -21 -347 -142 -434 -322 -81
-168 -90 -425 -22 -605 24 -64 84 -159 127 -204 92 -94 221 -138 404 -137 167
1 286 43 358 127 29 35 52 40 52 11 0 -21 74 -86 111 -96 62 -19 129 -20 160
-5 44 23 62 120 30 159 -7 8 -36 22 -65 30 -83 24 -88 44 -87 351 1 244 6 344
26 495 3 19 7 52 10 74 9 79 -44 124 -132 112 -69 -9 -84 -27 -97 -118 -3 -20
-16 -37 -16 -20 0 39 -145 133 -226 146 -44 8 -142 15 -146 11z m180 -236 c72
-35 124 -96 142 -167 6 -25 10 -130 10 -249 -1 -179 -4 -213 -21 -259 -38
-101 -146 -164 -279 -164 -134 0 -225 57 -282 176 -113 240 -31 576 165 667
88 42 173 40 265 -4z"/>
</g>
</svg>
